<?xml version="1.0" encoding="UTF-8"?>
<svg width="100px" height="100px" viewBox="0 0 100 100" version="1.1" xmlns="http://www.w3.org/2000/svg" xmlns:xlink="http://www.w3.org/1999/xlink">
    <!-- Generator: Sketch 52.6 (67491) - http://www.bohemiancoding.com/sketch -->
    <title>radio-host</title>
    <desc>Created with Sketch.</desc>
    <g id="Page-1" stroke="none" stroke-width="1" fill="none" fill-rule="evenodd">
        <g id="radio-host">
            <g transform="translate(3.000000, 16.000000)">
                <path d="M5.34090909,55.0930139 L88.6590909,55.0930139" id="Stroke-3" stroke="#4550E6" stroke-linecap="round" stroke-linejoin="round"></path>
                <path d="M0.534090909,55.0930139 L3.20454545,55.0930139" id="Stroke-5" stroke="#4550E6" stroke-linecap="round" stroke-linejoin="round"></path>
                <path d="M41.80575,30.1657611 C50.9857045,30.2481083 58.3625682,37.7256639 58.3625682,46.8950806 L58.3625682,55.0934417 L25.2489318,55.0934417 L25.2489318,46.8950806 C25.2489318,37.7256639 32.6257955,30.2481083 41.80575,30.1657611" id="Fill-9" fill="#FFFFFF"></path>
                <path d="M41.80575,30.1657611 C50.9857045,30.2481083 58.3625682,37.7256639 58.3625682,46.8950806 L58.3625682,55.0934417 L25.2489318,55.0934417 L25.2489318,46.8950806 C25.2489318,37.7256639 32.6257955,30.2481083 41.80575,30.1657611 Z" id="Stroke-11" stroke="#4550E6" stroke-linecap="round" stroke-linejoin="round"></path>
                <path d="M41.80575,25.1485694 C35.3966591,24.079125 27.5551364,23.8652361 28.9875682,31.0305139 C29.6455682,34.3254722 31.2125909,34.3543472 41.80575,40.1207917 C52.3989091,34.3543472 53.9659318,34.3254722 54.6239318,31.0305139 C56.0563636,23.8652361 48.2148409,24.079125 41.80575,25.1485694" id="Fill-13" fill="#FFFFFF"></path>
                <path d="M41.80575,25.1485694 C35.3966591,24.079125 27.5551364,23.8652361 28.9875682,31.0305139 C29.6455682,34.3254722 31.2125909,34.3543472 41.80575,40.1207917 C52.3989091,34.3543472 53.9659318,34.3254722 54.6239318,31.0305139 C56.0563636,23.8652361 48.2148409,24.079125 41.80575,25.1485694 Z" id="Stroke-15" stroke="#4550E6" stroke-linecap="round" stroke-linejoin="round"></path>
                <path d="M41.80575,25.1485694 C36.7607273,24.3069167 30.8301818,23.9957083 29.2311136,27.3944028 C30.5065227,30.40275 31.6291818,31.0690139 41.80575,34.7735694 C51.9823182,31.0690139 53.1049773,30.40275 54.3803864,27.3944028 C52.78025,23.9957083 46.8507727,24.3069167 41.80575,25.1485694" id="Fill-17" fill="#FFFFFF"></path>
                <path d="M41.80575,25.1485694 C36.7607273,24.3069167 30.8301818,23.9957083 29.2311136,27.3944028 C30.5065227,30.40275 31.6291818,31.0690139 41.80575,34.7735694 C51.9823182,31.0690139 53.1049773,30.40275 54.3803864,27.3944028 C52.78025,23.9957083 46.8507727,24.3069167 41.80575,25.1485694 Z" id="Stroke-19" stroke="#4550E6" stroke-linecap="round" stroke-linejoin="round"></path>
                <path d="M36.6589295,35.1068083 C36.6589295,35.1068083 38.5869977,39.6113083 38.5869977,46.0461556" id="Stroke-21" stroke="#4550E6" stroke-linecap="round" stroke-linejoin="round"></path>
                <path d="M45.5443864,27.2874583 L45.5443864,31.7138889 C45.5443864,32.5576806 45.3382273,33.3875694 44.9419318,34.1319028 L41.80575,40.1207917 L38.6695682,34.1319028 C38.2732727,33.3875694 38.0671136,32.5576806 38.0671136,31.7138889 L38.0671136,27.2874583 L45.5443864,27.2874583 Z" id="Fill-23" fill="#FFFFFF"></path>
                <path d="M45.5443864,27.2874583 L45.5443864,31.7138889 C45.5443864,32.5576806 45.3382273,33.3875694 44.9419318,34.1319028 L41.80575,40.1207917 L38.6695682,34.1319028 C38.2732727,33.3875694 38.0671136,32.5576806 38.0671136,31.7138889 L38.0671136,27.2874583 L45.5443864,27.2874583 Z" id="Stroke-25" stroke="#4550E6" stroke-linecap="round" stroke-linejoin="round"></path>
                <path d="M46.9526773,35.1068083 C46.9526773,35.1068083 45.0235409,39.6113083 45.0235409,46.0461556" id="Stroke-27" stroke="#4550E6" stroke-linecap="round" stroke-linejoin="round"></path>
                <path d="M42.3398409,66.3221806 L38.6012045,66.3221806 L38.6012045,60.9749583 L42.3398409,60.9749583 C43.815,60.9749583 45.0102955,62.1716667 45.0102955,63.6485694 C45.0102955,65.1254722 43.815,66.3221806 42.3398409,66.3221806" id="Fill-29" fill="#FFFFFF"></path>
                <path d="M42.3398409,66.3221806 L38.6012045,66.3221806 L38.6012045,60.9749583 L42.3398409,60.9749583 C43.815,60.9749583 45.0102955,62.1716667 45.0102955,63.6485694 C45.0102955,65.1254722 43.815,66.3221806 42.3398409,66.3221806 Z" id="Stroke-31" stroke="#4550E6" stroke-linecap="round" stroke-linejoin="round"></path>
                <path d="M31.6580227,54.4110292 L31.6580227,45.1934875" id="Stroke-33" stroke="#4550E6" stroke-linecap="round" stroke-linejoin="round"></path>
                <g id="Group-38" transform="translate(24.181818, 48.611111)">
                    <path d="M1.06711364,0.840155556 L1.06711364,5.749975 C1.06711364,12.0008778 5.47229545,18.0250583 14.4193864,18.0250583 L14.4193864,12.660725 C14.4193864,12.0693222 13.9419091,11.5912806 13.3512045,11.5912806 C9.74822727,11.5912806 7.49436364,8.81821111 7.49436364,5.749975 L7.49436364,0.651933333" id="Fill-35" fill="#FFFFFF"></path>
                    <path d="M1.06711364,0.840155556 L1.06711364,5.749975 C1.06711364,12.0008778 5.47229545,18.0250583 14.4193864,18.0250583 L14.4193864,12.660725 C14.4193864,12.0693222 13.9419091,11.5912806 13.3512045,11.5912806 C9.74822727,11.5912806 7.49436364,8.81821111 7.49436364,5.749975 L7.49436364,0.651933333" id="Stroke-37" stroke="#4550E6" stroke-linecap="round" stroke-linejoin="round"></path>
                </g>
                <path d="M52.4875682,16.0615 L52.4875682,13.3878889 C52.4875682,7.48134722 47.70425,2.69344444 41.80575,2.69344444 C35.90725,2.69344444 31.1239318,7.48134722 31.1239318,13.3878889 L31.1239318,16.0615 C29.9446591,16.0615 28.9875682,17.0186528 28.9875682,18.2003889 C28.9875682,19.3810556 29.9446591,20.3392778 31.1239318,20.3392778 C31.1687955,20.3392778 31.2104545,20.3285833 31.2553182,20.325375 C32.0244091,25.4758194 36.4466818,29.4295556 41.80575,29.4295556 C47.16375,29.4295556 51.5870909,25.4758194 52.3561818,20.325375 C52.4010455,20.3285833 52.4427045,20.3392778 52.4875682,20.3392778 C53.6668409,20.3392778 54.6239318,19.3810556 54.6239318,18.2003889 C54.6239318,17.0186528 53.6668409,16.0615 52.4875682,16.0615" id="Fill-39" fill="#FFFFFF"></path>
                <path d="M52.4875682,16.0615 L52.4875682,13.3878889 C52.4875682,7.48134722 47.70425,2.69344444 41.80575,2.69344444 C35.90725,2.69344444 31.1239318,7.48134722 31.1239318,13.3878889 L31.1239318,16.0615 C29.9446591,16.0615 28.9875682,17.0186528 28.9875682,18.2003889 C28.9875682,19.3810556 29.9446591,20.3392778 31.1239318,20.3392778 C31.1687955,20.3392778 31.2104545,20.3285833 31.2553182,20.325375 C32.0244091,25.4758194 36.4466818,29.4295556 41.80575,29.4295556 C47.16375,29.4295556 51.5870909,25.4758194 52.3561818,20.325375 C52.4010455,20.3285833 52.4427045,20.3392778 52.4875682,20.3392778 C53.6668409,20.3392778 54.6239318,19.3810556 54.6239318,18.2003889 C54.6239318,17.0186528 53.6668409,16.0615 52.4875682,16.0615 Z" id="Stroke-41" stroke="#4550E6" stroke-linecap="round" stroke-linejoin="round"></path>
                <path d="M36.9989318,20.6066389 C36.9989318,21.3445556 36.40075,21.9434444 35.6637045,21.9434444 C34.9266591,21.9434444 34.3284773,21.3445556 34.3284773,20.6066389 C34.3284773,19.8687222 34.9266591,19.2698333 35.6637045,19.2698333 C36.40075,19.2698333 36.9989318,19.8687222 36.9989318,20.6066389" id="Fill-43" fill="#D6DAFF"></path>
                <path d="M46.6125682,20.6066389 C46.6125682,21.3445556 47.21075,21.9434444 47.9477955,21.9434444 C48.6848409,21.9434444 49.2830227,21.3445556 49.2830227,20.6066389 C49.2830227,19.8687222 48.6848409,19.2698333 47.9477955,19.2698333 C47.21075,19.2698333 46.6125682,19.8687222 46.6125682,20.6066389" id="Fill-45" fill="#D6DAFF"></path>
                <path d="M45.0102955,23.3219583 C44.0371818,24.1796528 42.9209318,24.6170556 41.80575,24.6170556 C40.6905682,24.6170556 39.5743182,24.1796528 38.6012045,23.3219583" id="Stroke-47" stroke="#4550E6" stroke-linecap="round" stroke-linejoin="round"></path>
                <path d="M39.1352955,17.1309444 C38.8041591,16.5010417 38.2273409,16.0615 37.5330227,16.0615 C36.8387045,16.0615 36.2618864,16.5010417 35.93075,17.1309444" id="Stroke-49" stroke="#4550E6" stroke-linecap="round" stroke-linejoin="round"></path>
                <path d="M47.68075,17.1309444 C47.3496136,16.5010417 46.7727955,16.0615 46.0784773,16.0615 C45.3841591,16.0615 44.8073409,16.5010417 44.4762045,17.1309444" id="Stroke-51" stroke="#4550E6" stroke-linecap="round" stroke-linejoin="round"></path>
                <path d="M40.5258545,0.439590278 C32.8125136,0.439590278 29.5994227,6.08090972 29.5994227,11.3789375 L29.5994227,15.8823681 C32.8125136,15.8823681 32.8125136,12.0216736 32.8125136,12.0216736 C32.8125136,12.0216736 40.5258545,13.3082153 45.6659455,9.44859028 C45.6659455,9.44859028 48.8801045,15.8823681 54.0223318,15.8823681 L54.0223318,11.3789375 C54.0223318,4.90772917 52.6582636,2.3699375 46.3089909,2.3699375 C46.3089909,2.3699375 45.6659455,0.439590278 40.5258545,0.439590278" id="Fill-53" fill="#FFFFFF"></path>
                <path d="M40.5258545,0.439590278 C32.8125136,0.439590278 29.5994227,6.08090972 29.5994227,11.3789375 L29.5994227,15.8823681 C32.8125136,15.8823681 32.8125136,12.0216736 32.8125136,12.0216736 C32.8125136,12.0216736 40.5258545,13.3082153 45.6659455,9.44859028 C45.6659455,9.44859028 48.8801045,15.8823681 54.0223318,15.8823681 L54.0223318,11.3789375 C54.0223318,4.90772917 52.6582636,2.3699375 46.3089909,2.3699375 C46.3089909,2.3699375 45.6659455,0.439590278 40.5258545,0.439590278 Z" id="Stroke-55" stroke="#4550E6" stroke-linecap="round" stroke-linejoin="round"></path>
                <path d="M52.3123864,45.8367583 L52.3123864,45.1929528" id="Stroke-87" stroke="#4550E6" stroke-linecap="round" stroke-linejoin="round"></path>
                <path d="M52.3123864,55.0544069 L52.3123864,45.1930597" id="Stroke-89" stroke="#4550E6" stroke-linecap="round" stroke-linejoin="round"></path>
                <path d="M32.5165205,67.391625 C32.5165205,68.277125 41.8417477,68.9957917 53.3460659,68.9957917 C64.8503841,68.9957917 74.1756114,68.277125 74.1756114,67.391625 C74.1756114,66.506125 64.8503841,65.7874583 53.3460659,65.7874583 C41.8417477,65.7874583 32.5165205,66.506125 32.5165205,67.391625" id="Fill-93" fill="#F0F2FF"></path>
                <g id="Group-160" transform="translate(44.477273, 43.263889)">
                    <path d="M3.09398864,20.3846806 L0.522875,20.3846806 L6.66278409,1.49080556 C6.83369318,0.960361111 7.32826136,0.599958333 7.88585227,0.599958333 L9.52123864,0.599958333" id="Fill-157" fill="#FFFFFF"></path>
                    <path d="M3.09398864,20.3846806 L0.522875,20.3846806 L6.66278409,1.49080556 C6.83369318,0.960361111 7.32826136,0.599958333 7.88585227,0.599958333 L9.52123864,0.599958333" id="Stroke-159" stroke="#4550E6" stroke-linejoin="round"></path>
                </g>
                <path d="M72.6359341,63.6485694 L47.5710477,63.6485694 L53.9982977,43.8638472 L77.2974795,43.8638472 C77.7087295,43.8638472 78.0954114,44.060625 78.3368205,44.3932222 C78.5792977,44.7258194 78.6476614,45.1535972 78.5216159,45.5450139 L72.6359341,63.6485694 Z" id="Fill-161" fill="#FFFFFF"></path>
                <path d="M72.6359341,63.6485694 L47.5710477,63.6485694 L53.9982977,43.8638472 L77.2974795,43.8638472 C77.7087295,43.8638472 78.0954114,44.060625 78.3368205,44.3932222 C78.5792977,44.7258194 78.6476614,45.1535972 78.5216159,45.5450139 L72.6359341,63.6485694 Z" id="Stroke-163" stroke="#4550E6" stroke-linejoin="round"></path>
                <path d="M72.6359341,63.6485694 L46.6128886,63.6485694 L46.6128886,66.8665278 L70.0658886,66.8665278 C71.4726841,66.8665278 72.6359341,65.9435972 72.6359341,63.6485694" id="Fill-165" fill="#FFFFFF"></path>
                <path d="M72.6359341,63.6485694 L46.6128886,63.6485694 L46.6128886,66.8665278 L70.0658886,66.8665278 C71.4726841,66.8665278 72.6359341,65.9435972 72.6359341,63.6485694 Z" id="Stroke-167" stroke="#4550E6" stroke-linejoin="round"></path>
                <path d="M46.6125682,63.6485694 L33.7943864,63.6485694 C33.7943864,65.8826389 34.8636364,66.8665278 36.3291818,66.8665278 L46.6125682,66.8665278 L46.6125682,63.6485694 Z" id="Fill-169" fill="#FFFFFF"></path>
                <path d="M46.6125682,63.6485694 L33.7943864,63.6485694 C33.7943864,65.8826389 34.8636364,66.8665278 36.3291818,66.8665278 L46.6125682,66.8665278 L46.6125682,63.6485694 Z" id="Stroke-171" stroke="#4550E6" stroke-linejoin="round"></path>
                <path d="M65.36215,52.7348889 C65.3536045,51.9349444 66.0137409,51.5510139 66.0447182,51.5317639 C65.6729909,50.9884861 65.0951045,50.913625 64.8900136,50.9050694 C64.3975818,50.8548056 63.9297182,51.1959583 63.6797636,51.1959583 C63.4308773,51.1959583 63.0463318,50.9125556 62.6382864,50.9200417 C62.1020591,50.9285972 61.6074909,51.2323194 61.3319,51.7125 C60.7743091,52.6792778 61.1898318,54.1134028 61.7324682,54.8973056 C61.9973773,55.2823056 62.3135591,55.7132917 62.7280136,55.69725 C63.1285818,55.6822778 63.2802636,55.4384444 63.76415,55.4384444 C64.2469682,55.4384444 64.3826273,55.69725 64.8056273,55.6897639 C65.2361045,55.6822778 65.5095591,55.2972778 65.7712636,54.9133472 C66.0767636,54.4673889 66.2017409,54.0364028 66.2092182,54.0139444 C66.1985364,54.0085972 65.3706955,53.6920417 65.36215,52.7348889" id="Fill-173" fill="#D6DAFF"></path>
                <path d="M65.36215,52.7348889 C65.3536045,51.9349444 66.0137409,51.5510139 66.0447182,51.5317639 C65.6729909,50.9884861 65.0951045,50.913625 64.8900136,50.9050694 C64.3975818,50.8548056 63.9297182,51.1959583 63.6797636,51.1959583 C63.4308773,51.1959583 63.0463318,50.9125556 62.6382864,50.9200417 C62.1020591,50.9285972 61.6074909,51.2323194 61.3319,51.7125 C60.7743091,52.6792778 61.1898318,54.1134028 61.7324682,54.8973056 C61.9973773,55.2823056 62.3135591,55.7132917 62.7280136,55.69725 C63.1285818,55.6822778 63.2802636,55.4384444 63.76415,55.4384444 C64.2469682,55.4384444 64.3826273,55.69725 64.8056273,55.6897639 C65.2361045,55.6822778 65.5095591,55.2972778 65.7712636,54.9133472 C66.0767636,54.4673889 66.2017409,54.0364028 66.2092182,54.0139444 C66.1985364,54.0085972 65.3706955,53.6920417 65.36215,52.7348889 Z" id="Stroke-175" stroke="#4550E6" stroke-linejoin="round"></path>
                <path d="M64.2813636,49.2633653 L64.8603182,48.6826569" id="Stroke-177" stroke="#4550E6" stroke-linecap="round" stroke-linejoin="round"></path>
                <path d="M72.6359341,63.6485694 L47.5710477,63.6485694 L53.9982977,43.8638472 L77.2974795,43.8638472 C77.7087295,43.8638472 78.0954114,44.060625 78.3368205,44.3932222 C78.5792977,44.7258194 78.6476614,45.1535972 78.5216159,45.5450139 L72.6359341,63.6485694 Z" id="Stroke-179" stroke="#4550E6" stroke-linejoin="round"></path>
                <path d="M91,55 L93.6704545,55" id="Stroke-7" stroke="#4550E6" stroke-linecap="round" stroke-linejoin="round"></path>
            </g>
        </g>
    </g>
</svg>